<svg xmlns="http://www.w3.org/2000/svg" viewBox="0 0 1440 320">
  <path fill="#f3f4f5" fill-opacity="1" d="M0,160L34.3,149.3C68.6,139,137,117,206,106.7C274.3,96,343,96,411,128C480,160,549,224,617,229.3C685.7,235,754,181,823,144C891.4,107,960,85,1029,101.3C1097.1,117,1166,171,1234,176C1302.9,181,1371,139,1406,117.3L1440,96L1440,320L1405.7,320C1371.4,320,1303,320,1234,320C1165.7,320,1097,320,1029,320C960,320,891,320,823,320C754.3,320,686,320,617,320C548.6,320,480,320,411,320C342.9,320,274,320,206,320C137.1,320,69,320,34,320L0,320Z"></path>
</svg>